<svg xmlns="http://www.w3.org/2000/svg" xmlns:xlink="http://www.w3.org/1999/xlink" xmlns:s="https://github.com/nturley/netlistsvg" width="1648" height="375"><style>    svg {
        stroke:#000;
        fill:none;
    }
    text {
        fill:#000;
        stroke:none;
        font-size:10px;
        font-weight: bold;
        font-family: "Courier New", monospace;
    }
    line {
        stroke-linecap: round;
    }
    .nodelabel {
        text-anchor: middle;
    }
    .inputPortLabel {
        text-anchor: end;
    }
    .splitjoinBody {
        fill:#000;
    }</style><g s:type="and" transform="translate(1523,273.5)" s:width="30" s:height="25" id="cell_$and$/host//Users/yr/code/computer-organization/computer-organization-labs/ALU/user/src/ALU.v:35$26"><s:alias val="$and"/><s:alias val="$logic_and"/><s:alias val="$_AND_"/><s:alias val="$reduce_and"/><path style="fill:#80D4FF" d="M0,0 L0,25 L15,25 A15 12.5 0 0 0 15,0 Z" class="cell_$and$/host//Users/yr/code/computer-organization/computer-organization-labs/ALU/user/src/ALU.v:35$26"/><g s:x="0" s:y="5" s:pid="A"/><g s:x="0" s:y="20" s:pid="B"/><g s:x="30" s:y="12.5" s:pid="Y"/><text x="3.0" y="15" class="smalltext">and</text></g><g s:type="reduce_xor" transform="translate(936,92.5)" s:width="33" s:height="25" id="cell_$xor$/host//Users/yr/code/computer-organization/computer-organization-labs/ALU/user/src/ALU.v:37$27"><s:alias val="$xor"/><s:alias val="$reduce_xor"/><s:alias val="$_XOR_"/><path style="fill:#80D4FF" d="M3,0 A30 25 0 0 1 3,25 A30 25 0 0 0 33,12.5 A30 25 0 0 0 3,0" class="cell_$xor$/host//Users/yr/code/computer-organization/computer-organization-labs/ALU/user/src/ALU.v:37$27"/><path style="fill:#ffffff" d="M0,0 A30 25 0 0 1 0,25" class="cell_$xor$/host//Users/yr/code/computer-organization/computer-organization-labs/ALU/user/src/ALU.v:37$27"/><g s:x="2" s:y="5" s:pid="A"/><g s:x="2" s:y="20" s:pid="B"/><g s:x="33" s:y="12.5" s:pid="Y"/><text x="10.0" y="15" class="smalltext">xor</text></g><g s:type="reduce_xor" transform="translate(936,165)" s:width="33" s:height="25" id="cell_$xor$/host//Users/yr/code/computer-organization/computer-organization-labs/ALU/user/src/ALU.v:38$28"><s:alias val="$xor"/><s:alias val="$reduce_xor"/><s:alias val="$_XOR_"/><path style="fill:#80D4FF" d="M3,0 A30 25 0 0 1 3,25 A30 25 0 0 0 33,12.5 A30 25 0 0 0 3,0" class="cell_$xor$/host//Users/yr/code/computer-organization/computer-organization-labs/ALU/user/src/ALU.v:38$28"/><path style="fill:#ffffff" d="M0,0 A30 25 0 0 1 0,25" class="cell_$xor$/host//Users/yr/code/computer-organization/computer-organization-labs/ALU/user/src/ALU.v:38$28"/><g s:x="2" s:y="5" s:pid="A"/><g s:x="2" s:y="20" s:pid="B"/><g s:x="33" s:y="12.5" s:pid="Y"/><text x="10.0" y="15" class="smalltext">xor</text></g><g s:type="generic" transform="translate(762,134.5)" s:width="60" s:height="45" id="cell_adder"><text x="30" y="-4" class="nodelabel cell_adder" s:attribute="ref">adder32</text><rect style="fill:#EDF5FF" width="60" height="105" rx="5" ry="5" s:generic="body" class="cell_adder"/><g transform="translate(0,15)" s:x="0" s:y="15" s:pid="in0" id="port_adder~A"><text x="-3" y="-4" class="inputPortLabel cell_adder">A</text></g><g transform="translate(0,35)" s:x="0" s:y="15" s:pid="in0" id="port_adder~B"><text x="-3" y="-4" class="inputPortLabel cell_adder">B</text></g><g transform="translate(0,55)" s:x="0" s:y="15" s:pid="in0" id="port_adder~Cin"><text x="-3" y="-4" class="inputPortLabel cell_adder">Cin</text></g><g transform="translate(60,15)" s:x="60" s:y="15" s:pid="out0" id="port_adder~Add_Carry"><text x="5" y="-4" style="fill:#000; stroke:none" class="cell_adder">Add_Carry</text></g><g transform="translate(60,35)" s:x="60" s:y="15" s:pid="out0" id="port_adder~Add_Overflow"><text x="5" y="-4" style="fill:#000; stroke:none" class="cell_adder">Add_Overflow</text></g><g transform="translate(60,55)" s:x="60" s:y="15" s:pid="out0" id="port_adder~Add_Result"><text x="5" y="-4" style="fill:#000; stroke:none" class="cell_adder">Add_Result</text></g><g transform="translate(60,75)" s:x="60" s:y="15" s:pid="out0" id="port_adder~Add_Sign"><text x="5" y="-4" style="fill:#000; stroke:none" class="cell_adder">Add_Sign</text></g><g transform="translate(60,95)" s:x="60" s:y="15" s:pid="out0" id="port_adder~Zero"><text x="5" y="-4" style="fill:#000; stroke:none" class="cell_adder">Zero</text></g></g><g s:type="generic" transform="translate(344,174.5)" s:width="60" s:height="45" id="cell_extend"><text x="30" y="-4" class="nodelabel cell_extend" s:attribute="ref">extend32</text><rect style="fill:#EDF5FF" width="60" height="25" rx="5" ry="5" s:generic="body" class="cell_extend"/><g transform="translate(0,15)" s:x="0" s:y="15" s:pid="in0" id="port_extend~SUBctr"><text x="-3" y="-4" class="inputPortLabel cell_extend">SUBctr</text></g><g transform="translate(60,15)" s:x="60" s:y="15" s:pid="out0" id="port_extend~extend_out"><text x="5" y="-4" style="fill:#000; stroke:none" class="cell_extend">extend_out</text></g></g><g s:type="generic" transform="translate(159,22)" s:width="60" s:height="45" id="cell_gen"><text x="30" y="-4" class="nodelabel cell_gen" s:attribute="ref">crtgenerator</text><rect style="fill:#EDF5FF" width="60" height="85" rx="5" ry="5" s:generic="body" class="cell_gen"/><g transform="translate(0,15)" s:x="0" s:y="15" s:pid="in0" id="port_gen~ALUctr"><text x="-3" y="-4" class="inputPortLabel cell_gen">ALUctr</text></g><g transform="translate(60,15)" s:x="60" s:y="15" s:pid="out0" id="port_gen~OPctr"><text x="5" y="-4" style="fill:#000; stroke:none" class="cell_gen">OPctr</text></g><g transform="translate(60,35)" s:x="60" s:y="15" s:pid="out0" id="port_gen~OVctr"><text x="5" y="-4" style="fill:#000; stroke:none" class="cell_gen">OVctr</text></g><g transform="translate(60,55)" s:x="60" s:y="15" s:pid="out0" id="port_gen~SIGctr"><text x="5" y="-4" style="fill:#000; stroke:none" class="cell_gen">SIGctr</text></g><g transform="translate(60,75)" s:x="60" s:y="15" s:pid="out0" id="port_gen~SUBctr"><text x="5" y="-4" style="fill:#000; stroke:none" class="cell_gen">SUBctr</text></g></g><g s:type="generic" transform="translate(1047,142)" s:width="60" s:height="45" id="cell_mux1"><text x="30" y="-4" class="nodelabel cell_mux1" s:attribute="ref">mux2to1_1bit</text><rect style="fill:#EDF5FF" width="60" height="65" rx="5" ry="5" s:generic="body" class="cell_mux1"/><g transform="translate(0,15)" s:x="0" s:y="15" s:pid="in0" id="port_mux1~choice1"><text x="-3" y="-4" class="inputPortLabel cell_mux1">choice1</text></g><g transform="translate(0,35)" s:x="0" s:y="15" s:pid="in0" id="port_mux1~choice2"><text x="-3" y="-4" class="inputPortLabel cell_mux1">choice2</text></g><g transform="translate(0,55)" s:x="0" s:y="15" s:pid="in0" id="port_mux1~sel"><text x="-3" y="-4" class="inputPortLabel cell_mux1">sel</text></g><g transform="translate(60,15)" s:x="60" s:y="15" s:pid="out0" id="port_mux1~out"><text x="5" y="-4" style="fill:#000; stroke:none" class="cell_mux1">out</text></g></g><g s:type="generic" transform="translate(1196.5,142)" s:width="60" s:height="45" id="cell_mux2"><text x="30" y="-4" class="nodelabel cell_mux2" s:attribute="ref">mux2to1_32bit_01mux</text><rect style="fill:#EDF5FF" width="60" height="25" rx="5" ry="5" s:generic="body" class="cell_mux2"/><g transform="translate(0,15)" s:x="0" s:y="15" s:pid="in0" id="port_mux2~sel"><text x="-3" y="-4" class="inputPortLabel cell_mux2">sel</text></g><g transform="translate(60,15)" s:x="60" s:y="15" s:pid="out0" id="port_mux2~out"><text x="5" y="-4" style="fill:#000; stroke:none" class="cell_mux2">out</text></g></g><g s:type="generic" transform="translate(1408,29)" s:width="60" s:height="45" id="cell_mux3"><text x="30" y="-4" class="nodelabel cell_mux3" s:attribute="ref">mux3to1_32bit</text><rect style="fill:#EDF5FF" width="60" height="85" rx="5" ry="5" s:generic="body" class="cell_mux3"/><g transform="translate(0,15)" s:x="0" s:y="15" s:pid="in0" id="port_mux3~choice1"><text x="-3" y="-4" class="inputPortLabel cell_mux3">choice1</text></g><g transform="translate(0,35)" s:x="0" s:y="15" s:pid="in0" id="port_mux3~choice2"><text x="-3" y="-4" class="inputPortLabel cell_mux3">choice2</text></g><g transform="translate(0,55)" s:x="0" s:y="15" s:pid="in0" id="port_mux3~choice3"><text x="-3" y="-4" class="inputPortLabel cell_mux3">choice3</text></g><g transform="translate(0,75)" s:x="0" s:y="15" s:pid="in0" id="port_mux3~sel"><text x="-3" y="-4" class="inputPortLabel cell_mux3">sel</text></g><g transform="translate(60,15)" s:x="60" s:y="15" s:pid="out0" id="port_mux3~out"><text x="5" y="-4" style="fill:#000; stroke:none" class="cell_mux3">out</text></g></g><g s:type="generic" transform="translate(1211,49)" s:width="60" s:height="45" id="cell_or_gate"><text x="30" y="-4" class="nodelabel cell_or_gate" s:attribute="ref">or32</text><rect style="fill:#EDF5FF" width="60" height="45" rx="5" ry="5" s:generic="body" class="cell_or_gate"/><g transform="translate(0,15)" s:x="0" s:y="15" s:pid="in0" id="port_or_gate~operendA"><text x="-3" y="-4" class="inputPortLabel cell_or_gate">operendA</text></g><g transform="translate(0,35)" s:x="0" s:y="15" s:pid="in0" id="port_or_gate~operendB"><text x="-3" y="-4" class="inputPortLabel cell_or_gate">operendB</text></g><g transform="translate(60,15)" s:x="60" s:y="15" s:pid="out0" id="port_or_gate~out"><text x="5" y="-4" style="fill:#000; stroke:none" class="cell_or_gate">out</text></g></g><g s:type="generic" transform="translate(589,154.5)" s:width="60" s:height="45" id="cell_x"><text x="30" y="-4" class="nodelabel cell_x" s:attribute="ref">xor32</text><rect style="fill:#EDF5FF" width="60" height="45" rx="5" ry="5" s:generic="body" class="cell_x"/><g transform="translate(0,15)" s:x="0" s:y="15" s:pid="in0" id="port_x~operendA"><text x="-3" y="-4" class="inputPortLabel cell_x">operendA</text></g><g transform="translate(0,35)" s:x="0" s:y="15" s:pid="in0" id="port_x~operendB"><text x="-3" y="-4" class="inputPortLabel cell_x">operendB</text></g><g transform="translate(60,15)" s:x="60" s:y="15" s:pid="out0" id="port_x~out"><text x="5" y="-4" style="fill:#000; stroke:none" class="cell_x">out</text></g></g><g s:type="inputExt" transform="translate(619,56.5)" s:width="30" s:height="20" id="cell_A"><text x="15" y="-4" class="nodelabel cell_A" s:attribute="ref">A</text><s:alias val="$_inputExt_"/><path style="fill:#FDF766" d="M0,0 L0,16 L15,16 L24,8 L15,0 Z" class="cell_A"/><g s:x="24" s:y="8" s:pid="Y"/></g><g s:type="inputExt" transform="translate(374,27.5)" s:width="30" s:height="20" id="cell_B"><text x="15" y="-4" class="nodelabel cell_B" s:attribute="ref">B</text><s:alias val="$_inputExt_"/><path style="fill:#FDF766" d="M0,0 L0,16 L15,16 L24,8 L15,0 Z" class="cell_B"/><g s:x="24" s:y="8" s:pid="Y"/></g><g s:type="inputExt" transform="translate(12,29.5)" s:width="30" s:height="20" id="cell_ALUctr"><text x="15" y="-4" class="nodelabel cell_ALUctr" s:attribute="ref">ALUctr</text><s:alias val="$_inputExt_"/><path style="fill:#FDF766" d="M0,0 L0,16 L15,16 L24,8 L15,0 Z" class="cell_ALUctr"/><g s:x="24" s:y="8" s:pid="Y"/></g><g s:type="outputExt" transform="translate(1588,343)" s:width="30" s:height="20" id="cell_Zero"><text x="15" y="-4" class="nodelabel cell_Zero" s:attribute="ref">Zero</text><s:alias val="$_outputExt_"/><path style="fill:#66FDD9" d="M24,0 L24,16 L10,16 L0,8 L10,0 Z" class="cell_Zero"/><g s:x="0" s:y="8" s:pid="A"/></g><g s:type="outputExt" transform="translate(1588,278)" s:width="30" s:height="20" id="cell_Overflow"><text x="15" y="-4" class="nodelabel cell_Overflow" s:attribute="ref">Overflow</text><s:alias val="$_outputExt_"/><path style="fill:#66FDD9" d="M24,0 L24,16 L10,16 L0,8 L10,0 Z" class="cell_Overflow"/><g s:x="0" s:y="8" s:pid="A"/></g><g s:type="outputExt" transform="translate(1588,36.5)" s:width="30" s:height="20" id="cell_Result"><text x="15" y="-4" class="nodelabel cell_Result" s:attribute="ref">Result</text><s:alias val="$_outputExt_"/><path style="fill:#66FDD9" d="M24,0 L24,16 L10,16 L0,8 L10,0 Z" class="cell_Result"/><g s:x="0" s:y="8" s:pid="A"/></g><line x1="823" x2="926" y1="170" y2="170" class="net_103 width_1" style="stroke-width: 1"/><line x1="926" x2="926" y1="170" y2="278.5" class="net_103 width_1" style="stroke-width: 1"/><circle cx="926" cy="170" r="2" style="fill:#000" class="net_103 width_1"/><line x1="926" x2="1523" y1="278.5" y2="278.5" class="net_103 width_1" style="stroke-width: 1"/><line x1="823" x2="938" y1="170" y2="170" class="net_103 width_1" style="stroke-width: 1"/><line x1="220" x2="267" y1="57.5" y2="57.5" class="net_104 width_1" style="stroke-width: 1"/><line x1="267" x2="267" y1="57.5" y2="289.5" class="net_104 width_1" style="stroke-width: 1"/><line x1="267" x2="1498" y1="289.5" y2="289.5" class="net_104 width_1" style="stroke-width: 1"/><line x1="1498" x2="1498" y1="289.5" y2="293.5" class="net_104 width_1" style="stroke-width: 1"/><line x1="1498" x2="1523" y1="293.5" y2="293.5" class="net_104 width_1" style="stroke-width: 1"/><line x1="220" x2="938" y1="97.5" y2="97.5" class="net_105 width_1" style="stroke-width: 1"/><line x1="220" x2="297" y1="97.5" y2="97.5" class="net_105 width_1" style="stroke-width: 1"/><line x1="297" x2="297" y1="97.5" y2="212.5" class="net_105 width_1" style="stroke-width: 1"/><line x1="297" x2="718" y1="212.5" y2="212.5" class="net_105 width_1" style="stroke-width: 1"/><line x1="718" x2="718" y1="212.5" y2="190" class="net_105 width_1" style="stroke-width: 1"/><circle cx="297" cy="97.5" r="2" style="fill:#000" class="net_105 width_1"/><line x1="718" x2="762" y1="190" y2="190" class="net_105 width_1" style="stroke-width: 1"/><line x1="220" x2="297" y1="97.5" y2="97.5" class="net_105 width_1" style="stroke-width: 1"/><line x1="297" x2="297" y1="97.5" y2="190" class="net_105 width_1" style="stroke-width: 1"/><circle cx="297" cy="190" r="2" style="fill:#000" class="net_105 width_1"/><line x1="297" x2="344" y1="190" y2="190" class="net_105 width_1" style="stroke-width: 1"/><line x1="823" x2="916" y1="150" y2="150" class="net_106 width_1" style="stroke-width: 1"/><line x1="916" x2="916" y1="150" y2="112.5" class="net_106 width_1" style="stroke-width: 1"/><line x1="916" x2="938" y1="112.5" y2="112.5" class="net_106 width_1" style="stroke-width: 1"/><line x1="823" x2="916" y1="210" y2="210" class="net_108 width_1" style="stroke-width: 1"/><line x1="916" x2="916" y1="210" y2="185" class="net_108 width_1" style="stroke-width: 1"/><line x1="916" x2="938" y1="185" y2="185" class="net_108 width_1" style="stroke-width: 1"/><line x1="643" x2="679" y1="64.5" y2="64.5" class="net_2,3,4,5,6,7,8,9,10,11,12,13,14,15,16,17,18,19,20,21,22,23,24,25,26,27,28,29,30,31,32,33 width_32" style="stroke-width: 2"/><line x1="679" x2="679" y1="64.5" y2="112.5" class="net_2,3,4,5,6,7,8,9,10,11,12,13,14,15,16,17,18,19,20,21,22,23,24,25,26,27,28,29,30,31,32,33 width_32" style="stroke-width: 2"/><line x1="679" x2="718" y1="112.5" y2="112.5" class="net_2,3,4,5,6,7,8,9,10,11,12,13,14,15,16,17,18,19,20,21,22,23,24,25,26,27,28,29,30,31,32,33 width_32" style="stroke-width: 2"/><line x1="718" x2="718" y1="112.5" y2="150" class="net_2,3,4,5,6,7,8,9,10,11,12,13,14,15,16,17,18,19,20,21,22,23,24,25,26,27,28,29,30,31,32,33 width_32" style="stroke-width: 2"/><circle cx="679" cy="64.5" r="3" style="fill:#000" class="net_2,3,4,5,6,7,8,9,10,11,12,13,14,15,16,17,18,19,20,21,22,23,24,25,26,27,28,29,30,31,32,33 width_32"/><line x1="718" x2="762" y1="150" y2="150" class="net_2,3,4,5,6,7,8,9,10,11,12,13,14,15,16,17,18,19,20,21,22,23,24,25,26,27,28,29,30,31,32,33 width_32" style="stroke-width: 2"/><line x1="643" x2="1211" y1="64.5" y2="64.5" class="net_2,3,4,5,6,7,8,9,10,11,12,13,14,15,16,17,18,19,20,21,22,23,24,25,26,27,28,29,30,31,32,33 width_32" style="stroke-width: 2"/><line x1="650" x2="762" y1="170" y2="170" class="net_142,143,144,145,146,147,148,149,150,151,152,153,154,155,156,157,158,159,160,161,162,163,164,165,166,167,168,169,170,171,172,173 width_32" style="stroke-width: 2"/><line x1="36" x2="159" y1="37.5" y2="37.5" class="net_66,67,68 width_3" style="stroke-width: 2"/><line x1="969" x2="979" y1="105" y2="105" class="net_107 width_1" style="stroke-width: 1"/><line x1="979" x2="979" y1="105" y2="157.5" class="net_107 width_1" style="stroke-width: 1"/><line x1="979" x2="1047" y1="157.5" y2="157.5" class="net_107 width_1" style="stroke-width: 1"/><line x1="969" x2="1047" y1="177.5" y2="177.5" class="net_109 width_1" style="stroke-width: 1"/><line x1="220" x2="277" y1="77.5" y2="77.5" class="net_208 width_1" style="stroke-width: 1"/><line x1="277" x2="277" y1="77.5" y2="252.5" class="net_208 width_1" style="stroke-width: 1"/><line x1="277" x2="979" y1="252.5" y2="252.5" class="net_208 width_1" style="stroke-width: 1"/><line x1="979" x2="979" y1="252.5" y2="197.5" class="net_208 width_1" style="stroke-width: 1"/><line x1="979" x2="1047" y1="197.5" y2="197.5" class="net_208 width_1" style="stroke-width: 1"/><line x1="1108" x2="1196.5" y1="157.5" y2="157.5" class="net_209 width_1" style="stroke-width: 1"/><line x1="823" x2="906" y1="190" y2="190" class="net_110,111,112,113,114,115,116,117,118,119,120,121,122,123,124,125,126,127,128,129,130,131,132,133,134,135,136,137,138,139,140,141 width_32" style="stroke-width: 2"/><line x1="906" x2="906" y1="190" y2="28" class="net_110,111,112,113,114,115,116,117,118,119,120,121,122,123,124,125,126,127,128,129,130,131,132,133,134,135,136,137,138,139,140,141 width_32" style="stroke-width: 2"/><line x1="906" x2="1340" y1="28" y2="28" class="net_110,111,112,113,114,115,116,117,118,119,120,121,122,123,124,125,126,127,128,129,130,131,132,133,134,135,136,137,138,139,140,141 width_32" style="stroke-width: 2"/><line x1="1340" x2="1340" y1="28" y2="44.5" class="net_110,111,112,113,114,115,116,117,118,119,120,121,122,123,124,125,126,127,128,129,130,131,132,133,134,135,136,137,138,139,140,141 width_32" style="stroke-width: 2"/><line x1="1340" x2="1408" y1="44.5" y2="44.5" class="net_110,111,112,113,114,115,116,117,118,119,120,121,122,123,124,125,126,127,128,129,130,131,132,133,134,135,136,137,138,139,140,141 width_32" style="stroke-width: 2"/><line x1="1272" x2="1408" y1="64.5" y2="64.5" class="net_242,243,244,245,246,247,248,249,250,251,252,253,254,255,256,257,258,259,260,261,262,263,264,265,266,267,268,269,270,271,272,273 width_32" style="stroke-width: 2"/><line x1="1257.5" x2="1340" y1="157.5" y2="157.5" class="net_210,211,212,213,214,215,216,217,218,219,220,221,222,223,224,225,226,227,228,229,230,231,232,233,234,235,236,237,238,239,240,241 width_32" style="stroke-width: 2"/><line x1="1340" x2="1340" y1="157.5" y2="84.5" class="net_210,211,212,213,214,215,216,217,218,219,220,221,222,223,224,225,226,227,228,229,230,231,232,233,234,235,236,237,238,239,240,241 width_32" style="stroke-width: 2"/><line x1="1340" x2="1408" y1="84.5" y2="84.5" class="net_210,211,212,213,214,215,216,217,218,219,220,221,222,223,224,225,226,227,228,229,230,231,232,233,234,235,236,237,238,239,240,241 width_32" style="stroke-width: 2"/><line x1="220" x2="287" y1="37.5" y2="37.5" class="net_206,207 width_2" style="stroke-width: 2"/><line x1="287" x2="287" y1="37.5" y2="267.5" class="net_206,207 width_2" style="stroke-width: 2"/><line x1="287" x2="1350" y1="267.5" y2="267.5" class="net_206,207 width_2" style="stroke-width: 2"/><line x1="1350" x2="1350" y1="267.5" y2="104.5" class="net_206,207 width_2" style="stroke-width: 2"/><line x1="1350" x2="1408" y1="104.5" y2="104.5" class="net_206,207 width_2" style="stroke-width: 2"/><line x1="398" x2="689" y1="35.5" y2="35.5" class="net_34,35,36,37,38,39,40,41,42,43,44,45,46,47,48,49,50,51,52,53,54,55,56,57,58,59,60,61,62,63,64,65 width_32" style="stroke-width: 2"/><line x1="689" x2="689" y1="35.5" y2="81.5" class="net_34,35,36,37,38,39,40,41,42,43,44,45,46,47,48,49,50,51,52,53,54,55,56,57,58,59,60,61,62,63,64,65 width_32" style="stroke-width: 2"/><line x1="689" x2="1137" y1="81.5" y2="81.5" class="net_34,35,36,37,38,39,40,41,42,43,44,45,46,47,48,49,50,51,52,53,54,55,56,57,58,59,60,61,62,63,64,65 width_32" style="stroke-width: 2"/><line x1="1137" x2="1137" y1="81.5" y2="84.5" class="net_34,35,36,37,38,39,40,41,42,43,44,45,46,47,48,49,50,51,52,53,54,55,56,57,58,59,60,61,62,63,64,65 width_32" style="stroke-width: 2"/><line x1="1137" x2="1211" y1="84.5" y2="84.5" class="net_34,35,36,37,38,39,40,41,42,43,44,45,46,47,48,49,50,51,52,53,54,55,56,57,58,59,60,61,62,63,64,65 width_32" style="stroke-width: 2"/><line x1="398" x2="476" y1="35.5" y2="35.5" class="net_34,35,36,37,38,39,40,41,42,43,44,45,46,47,48,49,50,51,52,53,54,55,56,57,58,59,60,61,62,63,64,65 width_32" style="stroke-width: 2"/><line x1="476" x2="476" y1="35.5" y2="170" class="net_34,35,36,37,38,39,40,41,42,43,44,45,46,47,48,49,50,51,52,53,54,55,56,57,58,59,60,61,62,63,64,65 width_32" style="stroke-width: 2"/><circle cx="476" cy="35.5" r="3" style="fill:#000" class="net_34,35,36,37,38,39,40,41,42,43,44,45,46,47,48,49,50,51,52,53,54,55,56,57,58,59,60,61,62,63,64,65 width_32"/><line x1="476" x2="589" y1="170" y2="170" class="net_34,35,36,37,38,39,40,41,42,43,44,45,46,47,48,49,50,51,52,53,54,55,56,57,58,59,60,61,62,63,64,65 width_32" style="stroke-width: 2"/><line x1="405" x2="589" y1="190" y2="190" class="net_174,175,176,177,178,179,180,181,182,183,184,185,186,187,188,189,190,191,192,193,194,195,196,197,198,199,200,201,202,203,204,205 width_32" style="stroke-width: 2"/><line x1="823" x2="906" y1="230" y2="230" class="net_69 width_1" style="stroke-width: 1"/><line x1="906" x2="906" y1="230" y2="351" class="net_69 width_1" style="stroke-width: 1"/><line x1="906" x2="1588" y1="351" y2="351" class="net_69 width_1" style="stroke-width: 1"/><line x1="1553" x2="1588" y1="286" y2="286" class="net_70 width_1" style="stroke-width: 1"/><line x1="1469" x2="1588" y1="44.5" y2="44.5" class="net_71,72,73,74,75,76,77,78,79,80,81,82,83,84,85,86,87,88,89,90,91,92,93,94,95,96,97,98,99,100,101,102 width_32" style="stroke-width: 2"/><rect x="818.5" y="59.5" width="22" height="9" class="net_2,3,4,5,6,7,8,9,10,11,12,13,14,15,16,17,18,19,20,21,22,23,24,25,26,27,28,29,30,31,32,33 width_32 busLabel_32" style="fill: white; stroke: none"/><text x="817.5" y="67.5" class="net_2,3,4,5,6,7,8,9,10,11,12,13,14,15,16,17,18,19,20,21,22,23,24,25,26,27,28,29,30,31,32,33 width_32 busLabel_32">/32/</text><rect x="818.5" y="59.5" width="22" height="9" class="net_2,3,4,5,6,7,8,9,10,11,12,13,14,15,16,17,18,19,20,21,22,23,24,25,26,27,28,29,30,31,32,33 width_32 busLabel_32" style="fill: white; stroke: none"/><text x="817.5" y="67.5" class="net_2,3,4,5,6,7,8,9,10,11,12,13,14,15,16,17,18,19,20,21,22,23,24,25,26,27,28,29,30,31,32,33 width_32 busLabel_32">/32/</text><rect x="705" y="165" width="22" height="9" class="net_142,143,144,145,146,147,148,149,150,151,152,153,154,155,156,157,158,159,160,161,162,163,164,165,166,167,168,169,170,171,172,173 width_32 busLabel_32" style="fill: white; stroke: none"/><text x="704" y="173" class="net_142,143,144,145,146,147,148,149,150,151,152,153,154,155,156,157,158,159,160,161,162,163,164,165,166,167,168,169,170,171,172,173 width_32 busLabel_32">/32/</text><rect x="84" y="32.5" width="16" height="9" class="net_66,67,68 width_3 busLabel_3" style="fill: white; stroke: none"/><text x="83" y="40.5" class="net_66,67,68 width_3 busLabel_3">/3/</text><rect x="1064.5" y="23" width="22" height="9" class="net_110,111,112,113,114,115,116,117,118,119,120,121,122,123,124,125,126,127,128,129,130,131,132,133,134,135,136,137,138,139,140,141 width_32 busLabel_32" style="fill: white; stroke: none"/><text x="1063.5" y="31" class="net_110,111,112,113,114,115,116,117,118,119,120,121,122,123,124,125,126,127,128,129,130,131,132,133,134,135,136,137,138,139,140,141 width_32 busLabel_32">/32/</text><rect x="1327" y="59.5" width="22" height="9" class="net_242,243,244,245,246,247,248,249,250,251,252,253,254,255,256,257,258,259,260,261,262,263,264,265,266,267,268,269,270,271,272,273 width_32 busLabel_32" style="fill: white; stroke: none"/><text x="1326" y="67.5" class="net_242,243,244,245,246,247,248,249,250,251,252,253,254,255,256,257,258,259,260,261,262,263,264,265,266,267,268,269,270,271,272,273 width_32 busLabel_32">/32/</text><rect x="1327" y="152.5" width="22" height="9" class="net_210,211,212,213,214,215,216,217,218,219,220,221,222,223,224,225,226,227,228,229,230,231,232,233,234,235,236,237,238,239,240,241 width_32 busLabel_32" style="fill: white; stroke: none"/><text x="1326" y="160.5" class="net_210,211,212,213,214,215,216,217,218,219,220,221,222,223,224,225,226,227,228,229,230,231,232,233,234,235,236,237,238,239,240,241 width_32 busLabel_32">/32/</text><rect x="818.5" y="262.5" width="16" height="9" class="net_206,207 width_2 busLabel_2" style="fill: white; stroke: none"/><text x="817.5" y="270.5" class="net_206,207 width_2 busLabel_2">/2/</text><rect x="502" y="165" width="22" height="9" class="net_34,35,36,37,38,39,40,41,42,43,44,45,46,47,48,49,50,51,52,53,54,55,56,57,58,59,60,61,62,63,64,65 width_32 busLabel_32" style="fill: white; stroke: none"/><text x="501" y="173" class="net_34,35,36,37,38,39,40,41,42,43,44,45,46,47,48,49,50,51,52,53,54,55,56,57,58,59,60,61,62,63,64,65 width_32 busLabel_32">/32/</text><rect x="502" y="165" width="22" height="9" class="net_34,35,36,37,38,39,40,41,42,43,44,45,46,47,48,49,50,51,52,53,54,55,56,57,58,59,60,61,62,63,64,65 width_32 busLabel_32" style="fill: white; stroke: none"/><text x="501" y="173" class="net_34,35,36,37,38,39,40,41,42,43,44,45,46,47,48,49,50,51,52,53,54,55,56,57,58,59,60,61,62,63,64,65 width_32 busLabel_32">/32/</text><rect x="502" y="185" width="22" height="9" class="net_174,175,176,177,178,179,180,181,182,183,184,185,186,187,188,189,190,191,192,193,194,195,196,197,198,199,200,201,202,203,204,205 width_32 busLabel_32" style="fill: white; stroke: none"/><text x="501" y="193" class="net_174,175,176,177,178,179,180,181,182,183,184,185,186,187,188,189,190,191,192,193,194,195,196,197,198,199,200,201,202,203,204,205 width_32 busLabel_32">/32/</text><rect x="1537" y="39.5" width="22" height="9" class="net_71,72,73,74,75,76,77,78,79,80,81,82,83,84,85,86,87,88,89,90,91,92,93,94,95,96,97,98,99,100,101,102 width_32 busLabel_32" style="fill: white; stroke: none"/><text x="1536" y="47.5" class="net_71,72,73,74,75,76,77,78,79,80,81,82,83,84,85,86,87,88,89,90,91,92,93,94,95,96,97,98,99,100,101,102 width_32 busLabel_32">/32/</text></svg>